<svg width="171" height="153" viewBox="0 0 171 153" fill="none" xmlns="http://www.w3.org/2000/svg">
<path d="M115.9 42.1667H55.1C52.3017 42.1667 50.0333 44.4351 50.0333 47.2333V97.9C50.0333 100.698 52.3018 102.967 55.1 102.967H115.9C118.698 102.967 120.967 100.698 120.967 97.9V47.2333C120.967 44.4351 118.698 42.1667 115.9 42.1667Z" fill="#12D426"/>
<path d="M65.2333 29.5V54.8333M105.767 29.5V54.8333M62.7 67.5H77.9M108.3 67.5H93.1M62.7 82.7H77.9M93.1 82.7H108.3M55.1 42.1667H115.9C118.698 42.1667 120.967 44.4351 120.967 47.2333V97.9C120.967 100.698 118.698 102.967 115.9 102.967H55.1C52.3018 102.967 50.0333 100.698 50.0333 97.9V47.2333C50.0333 44.4351 52.3017 42.1667 55.1 42.1667Z" stroke="#00394C"/>
<path d="M68.1088 119.5H67.3188L70.3788 112.42H71.0788L74.1188 119.5H73.3188L72.5388 117.64H68.8788L68.1088 119.5ZM69.1488 116.98H72.2687L70.7088 113.22L69.1488 116.98ZM75.3707 120.44C75.5574 120.68 75.8107 120.883 76.1307 121.05C76.4574 121.217 76.8007 121.3 77.1607 121.3C77.494 121.3 77.7774 121.25 78.0107 121.15C78.244 121.057 78.4307 120.927 78.5707 120.76C78.7174 120.593 78.824 120.397 78.8907 120.17C78.9574 119.95 78.9907 119.713 78.9907 119.46V118.58H78.9707C78.7907 118.873 78.534 119.1 78.2007 119.26C77.874 119.42 77.5407 119.5 77.2007 119.5C76.834 119.5 76.5007 119.44 76.2007 119.32C75.9074 119.2 75.654 119.037 75.4407 118.83C75.234 118.617 75.0707 118.363 74.9507 118.07C74.8374 117.777 74.7807 117.46 74.7807 117.12C74.7807 116.787 74.8374 116.473 74.9507 116.18C75.0707 115.887 75.234 115.63 75.4407 115.41C75.654 115.19 75.9074 115.017 76.2007 114.89C76.5007 114.763 76.834 114.7 77.2007 114.7C77.5407 114.7 77.874 114.78 78.2007 114.94C78.5274 115.1 78.784 115.33 78.9707 115.63H78.9907V114.82H79.6707V119.46C79.6707 119.713 79.634 119.983 79.5607 120.27C79.494 120.557 79.364 120.82 79.1707 121.06C78.984 121.3 78.7274 121.5 78.4007 121.66C78.074 121.82 77.6507 121.9 77.1307 121.9C76.6974 121.9 76.284 121.817 75.8907 121.65C75.4974 121.483 75.1607 121.253 74.8807 120.96L75.3707 120.44ZM75.5007 117.1C75.5007 117.347 75.5407 117.58 75.6207 117.8C75.7007 118.02 75.814 118.213 75.9607 118.38C76.114 118.547 76.3007 118.68 76.5207 118.78C76.7407 118.873 76.9907 118.92 77.2707 118.92C77.5307 118.92 77.7707 118.877 77.9907 118.79C78.2107 118.703 78.4007 118.58 78.5607 118.42C78.7207 118.26 78.844 118.07 78.9307 117.85C79.024 117.623 79.0707 117.373 79.0707 117.1C79.0707 116.853 79.024 116.62 78.9307 116.4C78.844 116.18 78.7207 115.987 78.5607 115.82C78.4007 115.653 78.2107 115.52 77.9907 115.42C77.7707 115.32 77.5307 115.27 77.2707 115.27C76.9907 115.27 76.7407 115.32 76.5207 115.42C76.3007 115.52 76.114 115.653 75.9607 115.82C75.814 115.987 75.7007 116.18 75.6207 116.4C75.5407 116.62 75.5007 116.853 75.5007 117.1ZM85.0091 116.8C84.9891 116.36 84.8457 115.997 84.5791 115.71C84.3191 115.417 83.9457 115.27 83.4591 115.27C83.2324 115.27 83.0224 115.313 82.8291 115.4C82.6357 115.48 82.4657 115.593 82.3191 115.74C82.1724 115.88 82.0557 116.043 81.9691 116.23C81.8824 116.41 81.8324 116.6 81.8191 116.8H85.0091ZM85.6991 117.02C85.6991 117.067 85.6991 117.117 85.6991 117.17C85.6991 117.223 85.6957 117.28 85.6891 117.34H81.8091C81.8157 117.573 81.8624 117.793 81.9491 118C82.0357 118.207 82.1557 118.387 82.3091 118.54C82.4624 118.693 82.6424 118.817 82.8491 118.91C83.0557 118.997 83.2791 119.04 83.5191 119.04C83.8724 119.04 84.1757 118.96 84.4291 118.8C84.6891 118.633 84.8857 118.443 85.0191 118.23L85.5291 118.63C85.2491 118.983 84.9391 119.237 84.5991 119.39C84.2657 119.543 83.9057 119.62 83.5191 119.62C83.1724 119.62 82.8491 119.56 82.5491 119.44C82.2557 119.313 82.0024 119.14 81.7891 118.92C81.5757 118.7 81.4057 118.44 81.2791 118.14C81.1591 117.84 81.0991 117.513 81.0991 117.16C81.0991 116.807 81.1591 116.48 81.2791 116.18C81.3991 115.88 81.5657 115.62 81.7791 115.4C81.9924 115.18 82.2424 115.01 82.5291 114.89C82.8157 114.763 83.1257 114.7 83.4591 114.7C83.8257 114.7 84.1491 114.763 84.4291 114.89C84.7091 115.01 84.9424 115.177 85.1291 115.39C85.3157 115.597 85.4557 115.84 85.5491 116.12C85.6491 116.4 85.6991 116.7 85.6991 117.02ZM87.7717 114.82C87.7851 114.947 87.7951 115.087 87.8017 115.24C87.8084 115.393 87.8117 115.52 87.8117 115.62H87.8317C87.9651 115.347 88.1817 115.127 88.4817 114.96C88.7817 114.787 89.0984 114.7 89.4317 114.7C90.0251 114.7 90.4684 114.877 90.7617 115.23C91.0617 115.583 91.2117 116.05 91.2117 116.63V119.5H90.5317V116.91C90.5317 116.663 90.5117 116.44 90.4717 116.24C90.4317 116.04 90.3617 115.87 90.2617 115.73C90.1684 115.583 90.0384 115.47 89.8717 115.39C89.7117 115.31 89.5084 115.27 89.2617 115.27C89.0817 115.27 88.9051 115.307 88.7317 115.38C88.5651 115.453 88.4151 115.567 88.2817 115.72C88.1484 115.867 88.0417 116.057 87.9617 116.29C87.8817 116.517 87.8417 116.787 87.8417 117.1V119.5H87.1617V115.85C87.1617 115.723 87.1584 115.56 87.1517 115.36C87.1451 115.16 87.1351 114.98 87.1217 114.82H87.7717ZM96.8223 118.71C96.6223 119.01 96.3623 119.237 96.0423 119.39C95.7223 119.543 95.3923 119.62 95.0523 119.62C94.6856 119.62 94.3523 119.557 94.0523 119.43C93.7589 119.303 93.5056 119.13 93.2923 118.91C93.0856 118.69 92.9223 118.43 92.8023 118.13C92.6889 117.83 92.6323 117.507 92.6323 117.16C92.6323 116.813 92.6889 116.49 92.8023 116.19C92.9223 115.89 93.0856 115.63 93.2923 115.41C93.5056 115.19 93.7589 115.017 94.0523 114.89C94.3523 114.763 94.6856 114.7 95.0523 114.7C95.3923 114.7 95.7223 114.78 96.0423 114.94C96.3623 115.093 96.6223 115.323 96.8223 115.63H96.8423V111.94H97.5223V119.5H96.8423V118.71H96.8223ZM93.3523 117.16C93.3523 117.42 93.3923 117.667 93.4723 117.9C93.5523 118.127 93.6656 118.327 93.8123 118.5C93.9656 118.667 94.1523 118.8 94.3723 118.9C94.5923 118.993 94.8423 119.04 95.1223 119.04C95.3823 119.04 95.6223 118.993 95.8423 118.9C96.0623 118.8 96.2523 118.667 96.4123 118.5C96.5723 118.333 96.6956 118.137 96.7823 117.91C96.8756 117.677 96.9223 117.427 96.9223 117.16C96.9223 116.893 96.8756 116.647 96.7823 116.42C96.6956 116.187 96.5723 115.987 96.4123 115.82C96.2523 115.647 96.0623 115.513 95.8423 115.42C95.6223 115.32 95.3823 115.27 95.1223 115.27C94.8423 115.27 94.5923 115.32 94.3723 115.42C94.1523 115.52 93.9656 115.657 93.8123 115.83C93.6656 115.997 93.5523 116.197 93.4723 116.43C93.3923 116.657 93.3523 116.9 93.3523 117.16ZM102.289 116.48C102.289 116.073 102.183 115.77 101.969 115.57C101.756 115.37 101.446 115.27 101.039 115.27C100.759 115.27 100.499 115.32 100.259 115.42C100.019 115.52 99.8161 115.653 99.6495 115.82L99.2695 115.37C99.4628 115.177 99.7161 115.017 100.029 114.89C100.349 114.763 100.709 114.7 101.109 114.7C101.363 114.7 101.599 114.737 101.819 114.81C102.039 114.877 102.233 114.98 102.399 115.12C102.566 115.26 102.696 115.437 102.789 115.65C102.883 115.863 102.929 116.113 102.929 116.4V118.45C102.929 118.63 102.936 118.817 102.949 119.01C102.963 119.203 102.983 119.367 103.009 119.5H102.399C102.379 119.387 102.363 119.263 102.349 119.13C102.336 118.997 102.329 118.867 102.329 118.74H102.309C102.096 119.053 101.853 119.28 101.579 119.42C101.313 119.553 100.989 119.62 100.609 119.62C100.429 119.62 100.243 119.593 100.049 119.54C99.8628 119.493 99.6895 119.413 99.5295 119.3C99.3761 119.187 99.2461 119.04 99.1395 118.86C99.0395 118.68 98.9895 118.46 98.9895 118.2C98.9895 117.84 99.0795 117.557 99.2595 117.35C99.4461 117.137 99.6928 116.98 99.9995 116.88C100.306 116.773 100.656 116.707 101.049 116.68C101.449 116.647 101.863 116.63 102.289 116.63V116.48ZM102.089 117.16C101.809 117.16 101.526 117.173 101.239 117.2C100.959 117.22 100.703 117.267 100.469 117.34C100.243 117.407 100.056 117.507 99.9095 117.64C99.7628 117.773 99.6895 117.95 99.6895 118.17C99.6895 118.337 99.7195 118.477 99.7795 118.59C99.8461 118.703 99.9328 118.797 100.039 118.87C100.146 118.937 100.263 118.987 100.389 119.02C100.523 119.047 100.656 119.06 100.789 119.06C101.029 119.06 101.243 119.02 101.429 118.94C101.616 118.853 101.773 118.74 101.899 118.6C102.026 118.453 102.123 118.287 102.189 118.1C102.256 117.913 102.289 117.717 102.289 117.51V117.16H102.089Z" fill="#00394C"/>
</svg>
