<svg width="242" height="216" viewBox="0 0 242 216" fill="none" xmlns="http://www.w3.org/2000/svg">
<g filter="url(#filter0_d_50_457)">
<rect x="8" y="4" width="225.203" height="200" rx="24" fill="white"/>
</g>
<g clip-path="url(#clip0_50_457)">
<path d="M94.3857 113.435C94.2278 113.02 94.07 112.604 93.9364 112.189C93.9026 112.114 93.8742 112.037 93.8514 111.959C93.7421 111.609 93.6328 111.259 93.5478 110.866C93.5178 110.776 93.4935 110.685 93.475 110.592C93.3535 110.133 93.2443 109.663 93.1593 109.193C93.1593 109.127 93.1593 109.062 93.1593 108.996C93.1593 108.723 93.0742 108.449 93.0257 108.176C93.0257 108.089 93.0257 108.001 93.0257 107.925C93.0257 107.531 92.9286 107.126 92.8921 106.722C92.8921 106.569 92.8921 106.405 92.8921 106.241C92.8921 105.792 92.8921 105.333 92.8921 104.874C92.8921 104.207 92.8921 103.551 92.9893 102.895C92.9893 102.808 92.9893 102.709 92.9893 102.611C93.4254 97.7723 95.4076 93.1508 98.6964 89.3043C98.2406 84.8524 97.272 80.4552 95.8064 76.1837C90.2207 61.9698 78.9158 62.2322 71.2902 69.9077C62.0244 80.504 57.2667 93.7319 57.8745 107.207C58.4823 120.683 64.4156 133.52 74.6052 143.405C76.3294 144.673 80.9072 147.002 88.1686 143.044C97.5185 137.938 98.3199 124.577 95.6364 116.103C95.1687 115.234 94.7513 114.343 94.3857 113.435Z" fill="url(#paint0_linear_50_457)"/>
<path d="M146.818 96.3238C146.988 96.7393 147.134 97.1548 147.279 97.5812L147.352 97.8108C147.461 98.1607 147.571 98.5105 147.668 98.9042L147.741 99.1775C147.862 99.6477 147.959 100.107 148.057 100.577V100.774C148.057 101.047 148.154 101.321 148.19 101.594V101.845C148.19 102.25 148.287 102.644 148.324 103.048V103.529C148.324 103.977 148.324 104.437 148.324 104.896C148.324 105.563 148.324 106.219 148.226 106.875C148.226 106.973 148.226 107.061 148.226 107.159C147.743 112.004 145.71 116.618 142.374 120.444C142.841 124.894 143.809 129.29 145.264 133.564C150.849 147.778 162.154 147.516 169.78 139.84C179.063 129.258 183.844 116.038 183.261 102.563C182.678 89.0875 176.769 76.2427 166.598 66.3433C164.886 65.0749 160.296 62.746 153.047 66.7041C143.685 71.8102 142.884 85.1713 145.567 93.645C146.04 94.5157 146.458 95.4101 146.818 96.3238Z" fill="url(#paint1_linear_50_457)"/>
<g style="mix-blend-mode:screen">
<path d="M183.379 104.885C183.41 90.5874 177.412 76.8123 166.598 66.3433C164.886 65.0749 160.296 62.746 153.047 66.7041C149.505 68.7865 146.917 71.9511 145.761 75.6151C147.019 72.3771 149.442 69.6103 152.646 67.7537C159.932 63.8066 164.485 66.1246 166.197 67.4038C173.957 74.926 179.3 84.2067 181.653 94.2526C184.005 104.298 183.28 114.731 179.554 124.435C182.101 118.172 183.396 111.554 183.379 104.885ZM142.58 120.881C144.222 118.879 145.523 116.668 146.441 114.321C145.46 116.52 144.135 118.582 142.507 120.444L142.58 120.881Z" fill="url(#paint2_linear_50_457)"/>
</g>
<path d="M171.358 138.299C163.781 147.461 151.347 148.708 145.397 133.608C143.931 129.307 142.963 124.881 142.507 120.4C141.293 110.56 140.71 98.2263 140.2 87.041C139.69 75.8557 139.192 65.72 137.93 60.7124C135.088 49.4943 123.698 48.3571 121.1 48.2478H120.578C110.688 48.2429 100.937 50.3431 92.1207 54.3771C83.3041 58.4111 75.6714 64.2647 69.8452 71.4603C77.4101 62.2977 89.8564 61.0513 95.7942 76.1509C97.265 80.4511 98.2336 84.8777 98.6842 89.3589C99.9713 99.1994 100.493 111.533 100.991 122.718C101.489 133.903 102.011 144.039 103.274 149.047C106.103 160.265 117.505 161.402 120.092 161.511H120.626C130.515 161.513 140.265 159.412 149.081 155.378C157.897 151.344 165.53 145.492 171.358 138.299Z" fill="url(#paint3_linear_50_457)"/>
<g style="mix-blend-mode:screen" opacity="0.6">
<path d="M169.731 140.059C169.234 140.65 168.748 141.24 168.226 141.798C169.318 140.704 170.375 139.512 171.358 138.299C170.836 138.922 170.29 139.512 169.731 140.059ZM169.731 140.059C162.106 147.538 150.959 147.636 145.446 133.586C143.98 129.285 143.011 124.859 142.556 120.378C141.342 110.538 140.759 98.2044 140.249 87.0191C139.739 75.8338 139.241 65.6982 137.978 60.6905C135.137 49.4724 123.747 48.3353 121.148 48.2259H120.626C111.348 48.2231 102.185 50.0731 93.7968 53.6427C85.4084 57.2123 78.0037 62.4125 72.1159 68.869C78.0069 62.6943 85.3102 57.7389 93.5258 54.342C101.741 50.9452 110.675 49.1871 119.715 49.1881H120.238C122.836 49.2974 134.238 50.4346 137.067 61.6527C138.282 66.6603 138.84 76.7085 139.338 87.9813C139.836 99.2541 140.37 111.522 141.645 121.34C142.108 125.816 143.076 130.238 144.535 134.537C150.254 149.167 162.13 148.467 169.707 140.081L169.731 140.059ZM69.8452 71.4603C70.0881 71.176 70.3309 70.8917 70.5859 70.6184C70.3309 70.9136 70.0881 71.176 69.8452 71.4603Z" fill="#2FD1C5"/>
</g>
<g style="mix-blend-mode:multiply">
<path d="M93.5964 98.6964C94.5541 95.2876 96.2911 92.0962 98.6963 89.3261C98.2405 84.8743 97.272 80.4771 95.8063 76.2056C90.2207 61.9916 78.9158 62.254 71.2902 69.9296C71.2902 69.8749 88.3993 57.3338 93.5964 98.6964Z" fill="#2FD1C5"/>
</g>
</g>
<defs>
<filter id="filter0_d_50_457" x="0" y="0" width="241.203" height="216" filterUnits="userSpaceOnUse" color-interpolation-filters="sRGB">
<feFlood flood-opacity="0" result="BackgroundImageFix"/>
<feColorMatrix in="SourceAlpha" type="matrix" values="0 0 0 0 0 0 0 0 0 0 0 0 0 0 0 0 0 0 127 0" result="hardAlpha"/>
<feOffset dy="4"/>
<feGaussianBlur stdDeviation="4"/>
<feColorMatrix type="matrix" values="0 0 0 0 0.109804 0 0 0 0 0.145098 0 0 0 0 0.172549 0 0 0 0.05 0"/>
<feBlend mode="normal" in2="BackgroundImageFix" result="effect1_dropShadow_50_457"/>
<feBlend mode="normal" in="SourceGraphic" in2="effect1_dropShadow_50_457" result="shape"/>
</filter>
<linearGradient id="paint0_linear_50_457" x1="78.2595" y1="64.6799" x2="78.2595" y2="145.249" gradientUnits="userSpaceOnUse">
<stop stop-color="#2FD1C5"/>
<stop offset="1" stop-color="#80E3DC"/>
</linearGradient>
<linearGradient id="paint1_linear_50_457" x1="162.841" y1="64.4995" x2="162.841" y2="145.068" gradientUnits="userSpaceOnUse">
<stop stop-color="#2FD1C5"/>
<stop offset="1" stop-color="#80E3DC"/>
</linearGradient>
<linearGradient id="paint2_linear_50_457" x1="162.943" y1="64.4995" x2="162.943" y2="124.435" gradientUnits="userSpaceOnUse">
<stop stop-color="#2FD1C5"/>
<stop offset="1" stop-color="#80E3DC"/>
</linearGradient>
<linearGradient id="paint3_linear_50_457" x1="86.9666" y1="60.8217" x2="149.131" y2="155.602" gradientUnits="userSpaceOnUse">
<stop stop-color="#00698C"/>
<stop offset="1" stop-color="#0098CB"/>
</linearGradient>
<clipPath id="clip0_50_457">
<rect width="125.556" height="113.274" fill="white" transform="translate(57.8237 48.2478)"/>
</clipPath>
</defs>
</svg>
