<svg width="171" height="153" viewBox="0 0 171 153" fill="none" xmlns="http://www.w3.org/2000/svg">
<path d="M113.364 45.2436H52.5664C49.7683 45.2436 47.5 47.5931 47.5 50.4914V97.7221C47.5 100.62 49.7683 102.97 52.5664 102.97H113.364C116.162 102.97 118.43 100.62 118.43 97.7221V50.4914C118.43 47.5931 116.162 45.2436 113.364 45.2436Z" fill="#12D426"/>
<path d="M72.8321 42.6196V39.9957C72.8321 34.1991 77.3688 29.5 82.965 29.5C88.5612 29.5 93.0979 34.1991 93.0979 39.9957V42.6196M47.5 60.9871C66.275 83.2127 99.655 83.2127 118.43 60.9871M52.5664 45.2436H113.364C116.162 45.2436 118.43 47.5931 118.43 50.4914V97.7221C118.43 100.62 116.162 102.97 113.364 102.97H52.5664C49.7683 102.97 47.5 100.62 47.5 97.7221V50.4914C47.5 47.5931 49.7683 45.2436 52.5664 45.2436Z" stroke="black"/>
<path d="M73.7032 118H72.9832V111.56H70.6132V110.92H76.0732V111.56H73.7032V118ZM79.0893 114.98C79.0893 114.573 78.9826 114.27 78.7693 114.07C78.5559 113.87 78.2459 113.77 77.8393 113.77C77.5593 113.77 77.2993 113.82 77.0593 113.92C76.8193 114.02 76.6159 114.153 76.4493 114.32L76.0693 113.87C76.2626 113.677 76.5159 113.517 76.8293 113.39C77.1493 113.263 77.5093 113.2 77.9093 113.2C78.1626 113.2 78.3993 113.237 78.6193 113.31C78.8393 113.377 79.0326 113.48 79.1993 113.62C79.3659 113.76 79.4959 113.937 79.5893 114.15C79.6826 114.363 79.7293 114.613 79.7293 114.9V116.95C79.7293 117.13 79.7359 117.317 79.7493 117.51C79.7626 117.703 79.7826 117.867 79.8093 118H79.1993C79.1793 117.887 79.1626 117.763 79.1493 117.63C79.1359 117.497 79.1293 117.367 79.1293 117.24H79.1093C78.8959 117.553 78.6526 117.78 78.3793 117.92C78.1126 118.053 77.7893 118.12 77.4093 118.12C77.2293 118.12 77.0426 118.093 76.8493 118.04C76.6626 117.993 76.4893 117.913 76.3293 117.8C76.1759 117.687 76.0459 117.54 75.9393 117.36C75.8393 117.18 75.7893 116.96 75.7893 116.7C75.7893 116.34 75.8793 116.057 76.0593 115.85C76.2459 115.637 76.4926 115.48 76.7993 115.38C77.1059 115.273 77.4559 115.207 77.8493 115.18C78.2493 115.147 78.6626 115.13 79.0893 115.13V114.98ZM78.8893 115.66C78.6093 115.66 78.3259 115.673 78.0393 115.7C77.7593 115.72 77.5026 115.767 77.2693 115.84C77.0426 115.907 76.8559 116.007 76.7093 116.14C76.5626 116.273 76.4893 116.45 76.4893 116.67C76.4893 116.837 76.5193 116.977 76.5793 117.09C76.6459 117.203 76.7326 117.297 76.8393 117.37C76.9459 117.437 77.0626 117.487 77.1893 117.52C77.3226 117.547 77.4559 117.56 77.5893 117.56C77.8293 117.56 78.0426 117.52 78.2293 117.44C78.4159 117.353 78.5726 117.24 78.6993 117.1C78.8259 116.953 78.9226 116.787 78.9893 116.6C79.0559 116.413 79.0893 116.217 79.0893 116.01V115.66H78.8893ZM83.9711 114.43C83.8711 114.237 83.7177 114.08 83.5111 113.96C83.3111 113.833 83.0811 113.77 82.8211 113.77C82.7011 113.77 82.5811 113.783 82.4611 113.81C82.3411 113.837 82.2344 113.88 82.1411 113.94C82.0477 114 81.9711 114.077 81.9111 114.17C81.8577 114.263 81.8311 114.373 81.8311 114.5C81.8311 114.72 81.9211 114.89 82.1011 115.01C82.2811 115.123 82.5644 115.22 82.9511 115.3C83.5044 115.413 83.9111 115.58 84.1711 115.8C84.4377 116.013 84.5711 116.303 84.5711 116.67C84.5711 116.937 84.5177 117.163 84.4111 117.35C84.3111 117.53 84.1777 117.68 84.0111 117.8C83.8444 117.913 83.6544 117.993 83.4411 118.04C83.2344 118.093 83.0244 118.12 82.8111 118.12C82.4577 118.12 82.1144 118.047 81.7811 117.9C81.4477 117.753 81.1744 117.523 80.9611 117.21L81.5011 116.81C81.6211 117.017 81.7977 117.19 82.0311 117.33C82.2644 117.47 82.5211 117.54 82.8011 117.54C82.9477 117.54 83.0877 117.527 83.2211 117.5C83.3544 117.473 83.4711 117.427 83.5711 117.36C83.6711 117.293 83.7511 117.21 83.8111 117.11C83.8711 117.003 83.9011 116.873 83.9011 116.72C83.9011 116.473 83.7811 116.29 83.5411 116.17C83.3077 116.043 82.9677 115.927 82.5211 115.82C82.3811 115.787 82.2311 115.747 82.0711 115.7C81.9177 115.647 81.7744 115.573 81.6411 115.48C81.5077 115.38 81.3977 115.257 81.3111 115.11C81.2244 114.963 81.1811 114.78 81.1811 114.56C81.1811 114.32 81.2277 114.117 81.3211 113.95C81.4144 113.777 81.5377 113.637 81.6911 113.53C81.8511 113.417 82.0311 113.333 82.2311 113.28C82.4311 113.227 82.6377 113.2 82.8511 113.2C83.1777 113.2 83.4944 113.273 83.8011 113.42C84.1077 113.567 84.3377 113.773 84.4911 114.04L83.9711 114.43ZM86.6244 115.43H86.6544L88.8144 113.32H89.7944L87.4344 115.46L90.0344 118H89.0344L86.6544 115.54H86.6244V118H85.9444V110.44H86.6244V115.43ZM93.4535 114.43C93.3535 114.237 93.2001 114.08 92.9935 113.96C92.7935 113.833 92.5635 113.77 92.3035 113.77C92.1835 113.77 92.0635 113.783 91.9435 113.81C91.8235 113.837 91.7168 113.88 91.6235 113.94C91.5301 114 91.4535 114.077 91.3935 114.17C91.3401 114.263 91.3135 114.373 91.3135 114.5C91.3135 114.72 91.4035 114.89 91.5835 115.01C91.7635 115.123 92.0468 115.22 92.4335 115.3C92.9868 115.413 93.3935 115.58 93.6535 115.8C93.9201 116.013 94.0535 116.303 94.0535 116.67C94.0535 116.937 94.0001 117.163 93.8935 117.35C93.7935 117.53 93.6601 117.68 93.4935 117.8C93.3268 117.913 93.1368 117.993 92.9235 118.04C92.7168 118.093 92.5068 118.12 92.2935 118.12C91.9401 118.12 91.5968 118.047 91.2635 117.9C90.9301 117.753 90.6568 117.523 90.4435 117.21L90.9835 116.81C91.1035 117.017 91.2801 117.19 91.5135 117.33C91.7468 117.47 92.0035 117.54 92.2835 117.54C92.4301 117.54 92.5701 117.527 92.7035 117.5C92.8368 117.473 92.9535 117.427 93.0535 117.36C93.1535 117.293 93.2335 117.21 93.2935 117.11C93.3535 117.003 93.3835 116.873 93.3835 116.72C93.3835 116.473 93.2635 116.29 93.0235 116.17C92.7901 116.043 92.4501 115.927 92.0035 115.82C91.8635 115.787 91.7135 115.747 91.5535 115.7C91.4001 115.647 91.2568 115.573 91.1235 115.48C90.9901 115.38 90.8801 115.257 90.7935 115.11C90.7068 114.963 90.6635 114.78 90.6635 114.56C90.6635 114.32 90.7101 114.117 90.8035 113.95C90.8968 113.777 91.0201 113.637 91.1735 113.53C91.3335 113.417 91.5135 113.333 91.7135 113.28C91.9135 113.227 92.1201 113.2 92.3335 113.2C92.6601 113.2 92.9768 113.273 93.2835 113.42C93.5901 113.567 93.8201 113.773 93.9735 114.04L93.4535 114.43Z" fill="#00394C"/>
</svg>
